# xmcd
#
# Track frame offsets:
# 150
# 17747
# 39478
# 53511
# 71047
# 90686
# 103630
# 120972
# 137713
# 150980
# 162417
# 175102
# 192327
#
# Disc length: 2752 seconds
#
#
# Revision: 0
# Processed by: cddbd v1.5PL3 Copyright (c) Steve Scherf et al.
# Submitted via: FreeRIP 2.53 
#
DISCID=9f0abe0d
DTITLE=Dixie Chicks - Fly
DYEAR=1900
DGENRE=
TTITLE0=Ready To Run
TTITLE1=Cowboy Take Me Away
TTITLE2=If I Fall You're Going Down With Me
TTITLE3=Cold Day In July
TTITLE4=Good Bye Earl
TTITLE5=Don't Waste Your Heart
TTITLE6=Hello Mr. Heartache
TTITLE7=Sin Wagon
TTITLE8=Without You
TTITLE9=Some Days You Gotta Dance
TTITLE10=Hole In My Head
TTITLE11=Heartbreak Town
TTITLE12=Let Him Fly
EXTD=
EXTT0=
EXTT1=
EXTT2=
EXTT3=
EXTT4=
EXTT5=
EXTT6=
EXTT7=
EXTT8=
EXTT9=
EXTT10=
EXTT11=
EXTT12=
PLAYORDER=
